# xmcd
#
# Track frame offsets:
#	150
#	23283
#	38712
#	54905
#	73949
#	90603
#	109041
#	124014
#	139020
#	157376
#	173040
#
# Disc length: 2514 seconds
#
# Revision: 1
# Processed by: cddbd v1.5.1PL2 Copyright (c) Steve Scherf et al.
# Submitted via: audiograbber 1.83.01
#
DISCID=8b09d00b
DTITLE=Jason Aldean - Hicktown
DYEAR=2005
DGENRE=Country
TTITLE0=Hicktown
TTITLE1=Amarillo Sky
TTITLE2=Why
TTITLE3=Even If I Wanted To
TTITLE4=Lonesome USA
TTITLE5=Asphalt Cowboy
TTITLE6=I'm Just A Man
TTITLE7=You're The Love I Wanna Be In
TTITLE8=Good To Go
TTITLE9=I Believe In Ghosts
TTITLE10=She Loved Me
EXTD=
EXTT0=
EXTT1=
EXTT2=
EXTT3=
EXTT4=
EXTT5=
EXTT6=
EXTT7=
EXTT8=
EXTT9=
EXTT10=
PLAYORDER=
